<svg width="57" height="57" viewBox="0 0 57 57" fill="none" xmlns="http://www.w3.org/2000/svg">
<g clip-path="url(#clip0)">
<path d="M56.165 55.3301H53.4304V43.8535C53.9769 43.373 54.3228 42.6695 54.3228 41.8863C54.3228 40.4417 53.1475 39.2666 51.703 39.2666H46.2405L45.3969 25.7707C45.3694 25.3306 45.0045 24.9878 44.5636 24.9878H40.9939C40.5531 24.9878 40.1881 25.3306 40.1606 25.7707L39.3171 39.2666H37.3162L36.4727 25.7707C36.4452 25.3306 36.0802 24.9878 35.6394 24.9878H32.0697C31.6289 24.9878 31.2639 25.3306 31.2364 25.7707L30.3929 39.2666H28.392L27.5485 25.7707C27.521 25.3306 27.156 24.9878 26.7152 24.9878H23.1456C22.7047 24.9878 22.3398 25.3306 22.3123 25.7707L21.4687 39.2666H19.1431L18.6259 15.9876C18.6158 15.5339 18.245 15.1713 17.7911 15.1713H12.4366C11.9827 15.1713 11.6119 15.5339 11.6018 15.9876L11.0052 42.8363H4.40459C2.95999 42.8363 1.78481 44.0116 1.78481 45.4561C1.78481 46.2393 2.13071 46.9428 2.67722 47.4232V55.3301H0.834961C0.37384 55.3301 0 55.7039 0 56.1651C0 56.6262 0.37384 57 0.834961 57H56.165C56.6262 57 57 56.6262 57 56.1651C57 55.7039 56.6262 55.3301 56.165 55.3301ZM10.9256 46.406H7.97466C7.51354 46.406 7.1397 46.7799 7.1397 47.241C7.1397 47.7021 7.51354 48.076 7.97466 48.076H10.8886L10.7274 55.3301H4.34714V48.0744C4.36629 48.0748 4.38533 48.0758 4.40459 48.0758C4.86571 48.0758 5.23955 47.702 5.23955 47.2409C5.23955 46.7798 4.86571 46.4059 4.40459 46.4059C3.88079 46.4059 3.45473 45.9798 3.45473 45.4561C3.45473 44.9323 3.8809 44.5062 4.40459 44.5062H10.9678L10.9256 46.406ZM41.7782 26.6578H43.7791L44.5672 39.2666H40.9902L41.7782 26.6578ZM32.854 26.6578H34.8549L35.643 39.2666H32.0661L32.854 26.6578ZM23.9299 26.6578H25.9308L26.7188 39.2666H23.1418L23.9299 26.6578ZM14.2788 55.3301H12.3978L13.2529 16.8411H16.9743L17.4727 39.2666H16.0062C14.5616 39.2666 13.3863 40.4419 13.3863 41.8863C13.3863 42.6695 13.7322 43.373 14.2788 43.8535V55.3301ZM51.703 42.8362H49.9182C49.4571 42.8362 49.0832 43.21 49.0832 43.6712C49.0832 44.1323 49.4571 44.5061 49.9182 44.5061H51.703C51.7223 44.5061 51.7413 44.505 51.7605 44.5047V55.3301H15.9486V44.5047C15.9678 44.5051 15.9868 44.5061 16.0061 44.5061H46.3491C46.8102 44.5061 47.1841 44.1323 47.1841 43.6712C47.1841 43.21 46.8102 42.8362 46.3491 42.8362H16.0061C15.4823 42.8362 15.0561 42.41 15.0561 41.8863C15.0561 41.3627 15.4823 40.9365 16.0061 40.9365H51.7029C52.2267 40.9365 52.6529 41.3625 52.6529 41.8863C52.6529 42.4101 52.2267 42.8362 51.703 42.8362Z" fill="black" fill-opacity="0.4"/>
<path d="M46.3485 0C43.8331 0 41.4351 0.877822 39.5182 2.4864C38.1419 1.45372 36.474 0.892406 34.747 0.892406C32.6504 0.892406 30.649 1.72013 29.1613 3.18354C28.3901 2.851 27.556 2.67722 26.7152 2.67722C24.2328 2.67722 22.0199 4.16356 21.0487 6.38801C20.7136 6.29416 20.3705 6.24684 20.0221 6.24684C18.2972 6.24684 16.814 7.36848 16.2842 8.93965C16.1919 8.92941 16.0991 8.92417 16.0061 8.92417C14.5615 8.92417 13.3862 10.0995 13.3862 11.5439C13.3863 12.0052 13.7602 12.379 14.2213 12.379C14.6824 12.379 15.0563 12.0052 15.0563 11.5441C15.0563 11.0203 15.4824 10.5942 16.0062 10.5942C16.1719 10.5942 16.3343 10.6411 16.4888 10.7336C16.7391 10.8833 17.0493 10.8916 17.3072 10.7556C17.565 10.6196 17.7334 10.3589 17.751 10.0677C17.8241 8.86172 18.8217 7.91699 20.0219 7.91699C20.4015 7.91699 20.7761 8.01952 21.1352 8.2218C21.3602 8.34861 21.6315 8.36397 21.8697 8.26344C22.1078 8.16291 22.2858 7.95785 22.352 7.70803C22.8763 5.72928 24.6704 4.34725 26.7151 4.34725C27.4899 4.34725 28.2576 4.54987 28.9349 4.93306C29.2811 5.129 29.7178 5.05341 29.9779 4.75215C31.1798 3.36055 32.9181 2.56244 34.7469 2.56244C36.3105 2.56244 37.8138 3.14613 38.9799 4.20587C39.3053 4.50155 39.8043 4.49432 40.1209 4.18917C41.8064 2.56455 44.018 1.66992 46.3485 1.66992C51.301 1.66992 55.3301 5.69911 55.3301 10.6515C55.3301 15.604 51.301 19.6332 46.3485 19.6332C43.0604 19.6332 40.0377 17.8379 38.4601 14.9479C38.2497 14.5625 37.7767 14.406 37.3779 14.5897C36.5405 14.9754 35.6553 15.171 34.747 15.171C32.9182 15.171 31.1799 14.3729 29.978 12.9813C29.718 12.6802 29.2813 12.6045 28.935 12.8004C28.2577 13.1836 27.4901 13.3862 26.7152 13.3862C25.3042 13.3862 23.9986 12.7402 23.1332 11.6138C22.976 11.4092 22.7332 11.2888 22.4753 11.2874C22.4738 11.2874 22.4725 11.2874 22.4712 11.2874C22.2148 11.2874 21.9724 11.4053 21.8141 11.6072C21.3724 12.1706 20.7192 12.4937 20.0221 12.4937C19.5609 12.4937 19.1871 12.8675 19.1871 13.3286C19.1871 13.7898 19.5609 14.1636 20.0221 14.1636C20.907 14.1636 21.7486 13.8679 22.4344 13.3315C23.5801 14.4368 25.0966 15.056 26.7152 15.056C27.556 15.056 28.3901 14.8822 29.1613 14.5498C30.649 16.0132 32.6506 16.8409 34.747 16.8409C35.6468 16.8409 36.5279 16.6899 37.3751 16.3912C39.326 19.4388 42.6993 21.3031 46.3485 21.3031C52.2218 21.3031 57 16.5248 57 10.6515C57 4.77832 52.2218 0 46.3485 0Z" fill="black" fill-opacity="0.4"/>
<path d="M21.3604 46.406C20.8993 46.406 20.5254 46.7799 20.5254 47.2411V49.0261C20.5254 49.4872 20.8993 49.8611 21.3604 49.8611C21.8216 49.8611 22.1955 49.4872 22.1955 49.0261V47.2411C22.1955 46.7799 21.8216 46.406 21.3604 46.406Z" fill="black" fill-opacity="0.4"/>
<path d="M24.9303 46.406C24.4691 46.406 24.0952 46.7799 24.0952 47.2411V49.0261C24.0952 49.4872 24.4691 49.8611 24.9303 49.8611C25.3914 49.8611 25.7653 49.4872 25.7653 49.0261V47.2411C25.7653 46.7799 25.3914 46.406 24.9303 46.406Z" fill="black" fill-opacity="0.4"/>
<path d="M28.5001 46.406C28.0389 46.406 27.665 46.7799 27.665 47.2411V49.0261C27.665 49.4872 28.0389 49.8611 28.5001 49.8611C28.9613 49.8611 29.3352 49.4872 29.3352 49.0261V47.2411C29.3352 46.7799 28.9613 46.406 28.5001 46.406Z" fill="black" fill-opacity="0.4"/>
<path d="M32.0699 46.406C31.6087 46.406 31.2349 46.7799 31.2349 47.2411V49.0261C31.2349 49.4872 31.6087 49.8611 32.0699 49.8611C32.5311 49.8611 32.905 49.4872 32.905 49.0261V47.2411C32.905 46.7799 32.5312 46.406 32.0699 46.406Z" fill="black" fill-opacity="0.4"/>
<path d="M35.6397 46.406C35.1786 46.406 34.8047 46.7799 34.8047 47.2411V49.0261C34.8047 49.4872 35.1786 49.8611 35.6397 49.8611C36.1009 49.8611 36.4748 49.4872 36.4748 49.0261V47.2411C36.4748 46.7799 36.1009 46.406 35.6397 46.406Z" fill="black" fill-opacity="0.4"/>
<path d="M39.2091 46.406C38.7479 46.406 38.374 46.7799 38.374 47.2411V49.0261C38.374 49.4872 38.7479 49.8611 39.2091 49.8611C39.6703 49.8611 40.0441 49.4872 40.0441 49.0261V47.2411C40.0441 46.7799 39.6703 46.406 39.2091 46.406Z" fill="black" fill-opacity="0.4"/>
<path d="M42.7789 46.406C42.3177 46.406 41.9438 46.7799 41.9438 47.2411V49.0261C41.9438 49.4872 42.3177 49.8611 42.7789 49.8611C43.2401 49.8611 43.614 49.4872 43.614 49.0261V47.2411C43.614 46.7799 43.2401 46.406 42.7789 46.406Z" fill="black" fill-opacity="0.4"/>
<path d="M46.3487 46.406C45.8876 46.406 45.5137 46.7799 45.5137 47.2411V49.0261C45.5137 49.4872 45.8876 49.8611 46.3487 49.8611C46.8099 49.8611 47.1838 49.4872 47.1838 49.0261V47.2411C47.1838 46.7799 46.8099 46.406 46.3487 46.406Z" fill="black" fill-opacity="0.4"/>
</g>
<defs>
<clipPath id="clip0">
<rect width="57" height="57" fill="white"/>
</clipPath>
</defs>
</svg>
